<svg width="42" height="42" viewBox="0 0 42 42" fill="none" xmlns="http://www.w3.org/2000/svg">
<path d="M39.75 29.3333H10.5834C10.0308 29.3333 9.50092 29.1138 9.11021 28.7231C8.71951 28.3324 8.50002 27.8025 8.50002 27.25C8.50002 26.6975 8.71951 26.1676 9.11021 25.7769C9.50092 25.3861 10.0308 25.1667 10.5834 25.1667H32.3334C33.7264 25.1667 35.0795 24.7014 36.1779 23.8446C37.2762 22.9878 38.0569 21.7886 38.3959 20.4375L41.8334 6.91666C41.9114 6.60917 41.9182 6.28793 41.8532 5.97743C41.7882 5.66693 41.6531 5.37537 41.4584 5.12499C41.2557 4.86818 40.9955 4.66269 40.6987 4.52516C40.4019 4.38762 40.0769 4.3219 39.75 4.33332H10.0834C9.65353 3.1176 8.85821 2.06457 7.80641 1.31861C6.7546 0.572653 5.49782 0.17028 4.20835 0.166656H2.25002C1.69749 0.166656 1.16758 0.38615 0.776881 0.776851C0.38618 1.16755 0.166687 1.69746 0.166687 2.24999C0.166687 2.80252 0.38618 3.33243 0.776881 3.72313C1.16758 4.11383 1.69749 4.33332 2.25002 4.33332H4.20835C4.68426 4.31946 5.15056 4.46902 5.52961 4.7571C5.90867 5.04519 6.17762 5.45441 6.29169 5.91666L6.41669 6.91666L10.0209 21C8.36325 21.0746 6.80317 21.8046 5.68381 23.0294C4.56445 24.2543 3.97751 25.8736 4.0521 27.5312C4.1267 29.1888 4.85671 30.7489 6.08156 31.8683C7.30641 32.9876 8.92575 33.5746 10.5834 33.5H10.9584C10.6157 34.444 10.5056 35.4567 10.6374 36.4523C10.7691 37.4479 11.1389 38.3971 11.7153 39.2195C12.2917 40.0419 13.0578 40.7133 13.9487 41.1768C14.8396 41.6403 15.8291 41.8823 16.8334 41.8823C17.8376 41.8823 18.8271 41.6403 19.718 41.1768C20.6089 40.7133 21.375 40.0419 21.9514 39.2195C22.5278 38.3971 22.8976 37.4479 23.0293 36.4523C23.1611 35.4567 23.051 34.444 22.7084 33.5H27.625C27.2824 34.444 27.1723 35.4567 27.304 36.4523C27.4358 37.4479 27.8055 38.3971 28.3819 39.2195C28.9583 40.0419 29.7244 40.7133 30.6153 41.1768C31.5062 41.6403 32.4957 41.8823 33.5 41.8823C34.5043 41.8823 35.4938 41.6403 36.3847 41.1768C37.2756 40.7133 38.0417 40.0419 38.6181 39.2195C39.1945 38.3971 39.5642 37.4479 39.696 36.4523C39.8278 35.4567 39.7177 34.444 39.375 33.5H39.75C40.3026 33.5 40.8325 33.2805 41.2232 32.8898C41.6139 32.4991 41.8334 31.9692 41.8334 31.4167C41.8334 30.8641 41.6139 30.3342 41.2232 29.9435C40.8325 29.5528 40.3026 29.3333 39.75 29.3333ZM37.0834 8.49999L34.3542 19.4167C34.2401 19.8789 33.9712 20.2881 33.5921 20.5762C33.2131 20.8643 32.7468 21.0139 32.2709 21H14.2917L11.1667 8.49999H37.0834ZM16.8334 37.6667C16.4213 37.6667 16.0185 37.5445 15.6759 37.3156C15.3333 37.0866 15.0663 36.7613 14.9086 36.3806C14.7509 35.9999 14.7097 35.581 14.7901 35.1769C14.8704 34.7728 15.0689 34.4015 15.3602 34.1102C15.6516 33.8188 16.0228 33.6204 16.4269 33.54C16.831 33.4596 17.2499 33.5009 17.6306 33.6586C18.0113 33.8163 18.3367 34.0833 18.5656 34.4259C18.7945 34.7685 18.9167 35.1713 18.9167 35.5833C18.9167 36.1359 18.6972 36.6658 18.3065 37.0565C17.9158 37.4472 17.3859 37.6667 16.8334 37.6667ZM33.5 37.6667C33.088 37.6667 32.6852 37.5445 32.3426 37.3156C32 37.0866 31.733 36.7613 31.5753 36.3806C31.4176 35.9999 31.3763 35.581 31.4567 35.1769C31.5371 34.7728 31.7355 34.4015 32.0269 34.1102C32.3182 33.8188 32.6895 33.6204 33.0936 33.54C33.4977 33.4596 33.9166 33.5009 34.2973 33.6586C34.678 33.8163 35.0033 34.0833 35.2322 34.4259C35.4612 34.7685 35.5834 35.1713 35.5834 35.5833C35.5834 36.1359 35.3639 36.6658 34.9732 37.0565C34.5825 37.4472 34.0526 37.6667 33.5 37.6667Z" fill="white"/>
</svg>
