<svg width="49" height="31" viewBox="0 0 49 31" fill="none" xmlns="http://www.w3.org/2000/svg">
<path d="M33.125 7.72917C31.5963 7.72917 30.102 8.18247 28.8309 9.03177C27.5598 9.88106 26.5692 11.0882 25.9842 12.5005C25.3992 13.9128 25.2461 15.4669 25.5443 16.9662C25.8426 18.4655 26.5787 19.8427 27.6597 20.9237C28.7406 22.0046 30.1178 22.7408 31.6171 23.039C33.1164 23.3372 34.6705 23.1842 36.0828 22.5992C37.4951 22.0142 38.7023 21.0235 39.5516 19.7524C40.4009 18.4814 40.8542 16.987 40.8542 15.4583C40.8542 13.4084 40.0398 11.4425 38.5903 9.99299C37.1408 8.54349 35.1749 7.72917 33.125 7.72917ZM33.125 18.7708C32.4698 18.7708 31.8294 18.5766 31.2847 18.2126C30.7399 17.8486 30.3154 17.3313 30.0646 16.726C29.8139 16.1207 29.7483 15.4547 29.8761 14.8121C30.004 14.1695 30.3194 13.5793 30.7827 13.116C31.246 12.6528 31.8362 12.3373 32.4788 12.2095C33.1213 12.0817 33.7874 12.1473 34.3926 12.398C34.9979 12.6487 35.5153 13.0733 35.8792 13.618C36.2432 14.1627 36.4375 14.8032 36.4375 15.4583C36.4375 16.3369 36.0885 17.1794 35.4673 17.8006C34.8461 18.4218 34.0035 18.7708 33.125 18.7708ZM33.125 0H15.4583C11.3585 6.10919e-08 7.42664 1.62864 4.52764 4.52764C1.62864 7.42664 0 11.3585 0 15.4583C0 19.5581 1.62864 23.49 4.52764 26.389C7.42664 29.288 11.3585 30.9167 15.4583 30.9167H33.125C37.2248 30.9167 41.1567 29.288 44.0557 26.389C46.9547 23.49 48.5833 19.5581 48.5833 15.4583C48.5833 11.3585 46.9547 7.42664 44.0557 4.52764C41.1567 1.62864 37.2248 6.10919e-08 33.125 0ZM33.125 26.5H15.4583C12.5299 26.5 9.72141 25.3367 7.6507 23.266C5.57998 21.1953 4.41667 18.3868 4.41667 15.4583C4.41667 12.5299 5.57998 9.72141 7.6507 7.6507C9.72141 5.57998 12.5299 4.41667 15.4583 4.41667H33.125C36.0534 4.41667 38.8619 5.57998 40.9326 7.6507C43.0033 9.72141 44.1667 12.5299 44.1667 15.4583C44.1667 18.3868 43.0033 21.1953 40.9326 23.266C38.8619 25.3367 36.0534 26.5 33.125 26.5Z" fill="white"/>
</svg>
