<svg width="11" height="7" viewBox="0 0 11 7" fill="none" xmlns="http://www.w3.org/2000/svg">
<path d="M1.12502 2.26625L4.87877 5.97625C4.96011 6.05827 5.05688 6.12336 5.16351 6.16778C5.27014 6.21221 5.38451 6.23508 5.50002 6.23508C5.61553 6.23508 5.72989 6.21221 5.83652 6.16778C5.94315 6.12336 6.03992 6.05827 6.12127 5.97625L9.83126 2.26625C9.91328 2.18491 9.97837 2.08813 10.0228 1.98151C10.0672 1.87488 10.0901 1.76051 10.0901 1.645C10.0901 1.52949 10.0672 1.41512 10.0228 1.3085C9.97837 1.20187 9.91328 1.1051 9.83126 1.02375C9.66732 0.860783 9.44555 0.769309 9.21439 0.769309C8.98323 0.769309 8.76146 0.860783 8.59751 1.02375L5.50002 4.12125L2.40252 1.02375C2.23954 0.862102 2.01956 0.77097 1.79002 0.770003C1.67486 0.769337 1.56071 0.791409 1.4541 0.834953C1.34749 0.878497 1.25053 0.942657 1.16877 1.02375C1.08383 1.10217 1.01527 1.19664 0.967047 1.30171C0.918829 1.40677 0.891908 1.52035 0.88784 1.63588C0.883772 1.75141 0.902638 1.8666 0.943347 1.9748C0.984056 2.083 1.0458 2.18206 1.12502 2.26625Z" fill="black"/>
</svg>
