<svg width="23" height="35" viewBox="0 0 23 35" fill="none" xmlns="http://www.w3.org/2000/svg">
<path d="M22.0296 13.5534C21.8882 13.3442 21.6975 13.1729 21.4744 13.0546C21.2513 12.9364 21.0025 12.8747 20.75 12.8751H16.125V9.79175H19.5167C19.9256 9.79175 20.3177 9.62932 20.6068 9.3402C20.8959 9.05108 21.0583 8.65896 21.0583 8.25008V2.08341C21.0583 1.67454 20.8959 1.28241 20.6068 0.993292C20.3177 0.704173 19.9256 0.541748 19.5167 0.541748H14.5833C12.2119 0.541748 9.93752 1.48381 8.26063 3.1607C6.58374 4.83759 5.64168 7.11194 5.64168 9.48341V12.8751H2.25001C1.84113 12.8751 1.44901 13.0375 1.15989 13.3266C0.870769 13.6157 0.708344 14.0079 0.708344 14.4167V20.5834C0.708344 20.9923 0.870769 21.3844 1.15989 21.6735C1.44901 21.9627 1.84113 22.1251 2.25001 22.1251H5.64168V32.9167C5.64168 33.3256 5.8041 33.7178 6.09322 34.0069C6.38234 34.296 6.77447 34.4584 7.18334 34.4584H14.5833C14.9922 34.4584 15.3843 34.296 15.6735 34.0069C15.9626 33.7178 16.125 33.3256 16.125 32.9167V22.1251H18.2833C18.5921 22.1254 18.8938 22.033 19.1495 21.8598C19.4051 21.6866 19.6029 21.4407 19.7171 21.1538L22.1838 14.9872C22.2769 14.7537 22.3115 14.501 22.2846 14.2512C22.2578 14.0013 22.1702 13.7617 22.0296 13.5534V13.5534ZM17.235 19.0417H14.5833C14.1745 19.0417 13.7823 19.2042 13.4932 19.4933C13.2041 19.7824 13.0417 20.1745 13.0417 20.5834V31.3751H8.72501V20.5834C8.72501 20.1745 8.56258 19.7824 8.27347 19.4933C7.98435 19.2042 7.59222 19.0417 7.18334 19.0417H3.79168V15.9584H7.18334C7.59222 15.9584 7.98435 15.796 8.27347 15.5069C8.56258 15.2178 8.72501 14.8256 8.72501 14.4167V9.48341C8.72908 7.93094 9.3476 6.44321 10.4454 5.34544C11.5431 4.24767 13.0309 3.62915 14.5833 3.62508H17.975V6.70841H16.7417C16.2197 6.63237 15.6877 6.66428 15.1785 6.80218C14.6694 6.94007 14.1939 7.18101 13.7817 7.51008C13.5315 7.772 13.3369 8.08188 13.2098 8.42103C13.0826 8.76018 13.0254 9.12157 13.0417 9.48341V14.4167C13.0417 14.8256 13.2041 15.2178 13.4932 15.5069C13.7823 15.796 14.1745 15.9584 14.5833 15.9584H18.4683L17.235 19.0417Z" fill="white"/>
</svg>
