<svg width="37" height="37" viewBox="0 0 37 37" fill="none" xmlns="http://www.w3.org/2000/svg">
<path d="M26.7325 8.41742C26.3666 8.41742 26.0089 8.52592 25.7047 8.7292C25.4004 8.93248 25.1633 9.22141 25.0233 9.55945C24.8833 9.8975 24.8466 10.2695 24.918 10.6283C24.9894 10.9872 25.1656 11.3168 25.4243 11.5756C25.6831 11.8343 26.0127 12.0105 26.3716 12.0819C26.7304 12.1533 27.1024 12.1166 27.4404 11.9766C27.7785 11.8366 28.0674 11.5995 28.2707 11.2952C28.474 10.991 28.5825 10.6333 28.5825 10.2674C28.5825 9.77677 28.3876 9.30621 28.0406 8.95927C27.6937 8.61233 27.2231 8.41742 26.7325 8.41742ZM33.8241 12.1483C33.7942 10.8691 33.5546 9.60358 33.115 8.402C32.723 7.37391 32.1129 6.44297 31.3266 5.67325C30.5632 4.88303 29.6301 4.27677 28.5979 3.90034C27.3995 3.44733 26.1325 3.20228 24.8516 3.17575C23.2175 3.08325 22.6933 3.08325 18.5 3.08325C14.3066 3.08325 13.7825 3.08325 12.1483 3.17575C10.8674 3.20228 9.60047 3.44733 8.40206 3.90034C7.37173 4.28059 6.43942 4.88632 5.67331 5.67325C4.88309 6.43665 4.27684 7.36976 3.9004 8.402C3.44739 9.60041 3.20235 10.8674 3.17581 12.1483C3.08331 13.7824 3.08331 14.3066 3.08331 18.4999C3.08331 22.6933 3.08331 23.2174 3.17581 24.8516C3.20235 26.1325 3.44739 27.3994 3.9004 28.5978C4.27684 29.6301 4.88309 30.5632 5.67331 31.3266C6.43942 32.1135 7.37173 32.7193 8.40206 33.0995C9.60047 33.5525 10.8674 33.7976 12.1483 33.8241C13.7825 33.9166 14.3066 33.9166 18.5 33.9166C22.6933 33.9166 23.2175 33.9166 24.8516 33.8241C26.1325 33.7976 27.3995 33.5525 28.5979 33.0995C29.6301 32.7231 30.5632 32.1168 31.3266 31.3266C32.1164 30.5597 32.727 29.628 33.115 28.5978C33.5546 27.3963 33.7942 26.1307 33.8241 24.8516C33.8241 23.2174 33.9166 22.6933 33.9166 18.4999C33.9166 14.3066 33.9166 13.7824 33.8241 12.1483ZM31.0491 24.6666C31.0379 25.6452 30.8607 26.6148 30.525 27.5341C30.2788 28.205 29.8835 28.8112 29.3687 29.307C28.8687 29.8165 28.2637 30.2111 27.5958 30.4633C26.6765 30.799 25.7069 30.9762 24.7283 30.9874C23.1866 31.0645 22.6162 31.0799 18.5616 31.0799C14.5071 31.0799 13.9366 31.0799 12.395 30.9874C11.3789 31.0064 10.3671 30.85 9.40415 30.5249C8.76556 30.2599 8.18832 29.8663 7.70831 29.3687C7.19662 28.8734 6.8062 28.2667 6.56748 27.5958C6.19109 26.6633 5.98233 25.6717 5.95081 24.6666C5.95081 23.1249 5.85831 22.5545 5.85831 18.4999C5.85831 14.4453 5.85831 13.8749 5.95081 12.3333C5.95772 11.3328 6.14036 10.3413 6.4904 9.40409C6.7618 8.75337 7.17839 8.17331 7.70831 7.70825C8.17669 7.17818 8.75555 6.75719 9.40415 6.47492C10.3439 6.13582 11.3343 5.95858 12.3333 5.95075C13.875 5.95075 14.4454 5.85825 18.5 5.85825C22.5546 5.85825 23.125 5.85825 24.6666 5.95075C25.6453 5.96198 26.6149 6.13922 27.5341 6.47492C28.2347 6.73492 28.8635 7.15764 29.3687 7.70825C29.8739 8.18182 30.2687 8.7608 30.525 9.40409C30.8676 10.3429 31.045 11.3339 31.0491 12.3333C31.1262 13.8749 31.1416 14.4453 31.1416 18.4999C31.1416 22.5545 31.1262 23.1249 31.0491 24.6666ZM18.5 10.5912C16.9364 10.5942 15.4089 11.0606 14.1103 11.9315C12.8118 12.8024 11.8005 14.0386 11.2042 15.484C10.608 16.9294 10.4536 18.5191 10.7605 20.0523C11.0674 21.5854 11.8218 22.9932 12.9285 24.0977C14.0352 25.2022 15.4444 25.9539 16.9781 26.2578C18.5119 26.5617 20.1013 26.4042 21.5455 25.8052C22.9897 25.2061 24.224 24.1924 25.0923 22.8922C25.9607 21.5919 26.4241 20.0635 26.4241 18.4999C26.4262 17.4595 26.2225 16.4289 25.8248 15.4674C25.4271 14.5059 24.8433 13.6326 24.1068 12.8976C23.3704 12.1626 22.4959 11.5804 21.5337 11.1846C20.5714 10.7888 19.5404 10.5871 18.5 10.5912ZM18.5 23.6337C17.4846 23.6337 16.4921 23.3326 15.6478 22.7685C14.8036 22.2044 14.1456 21.4026 13.757 20.4645C13.3685 19.5265 13.2668 18.4942 13.4649 17.4984C13.663 16.5025 14.1519 15.5878 14.8699 14.8698C15.5878 14.1518 16.5026 13.6629 17.4984 13.4648C18.4943 13.2667 19.5265 13.3684 20.4646 13.757C21.4027 14.1455 22.2044 14.8035 22.7685 15.6478C23.3326 16.492 23.6337 17.4846 23.6337 18.4999C23.6337 19.1741 23.5009 19.8417 23.2429 20.4645C22.985 21.0874 22.6068 21.6533 22.1301 22.13C21.6534 22.6067 21.0874 22.9849 20.4646 23.2429C19.8417 23.5009 19.1742 23.6337 18.5 23.6337Z" fill="white"/>
</svg>
