<svg width="13" height="15" viewBox="0 0 13 15" fill="none" xmlns="http://www.w3.org/2000/svg">
<path d="M6.49998 0.416687C4.99709 0.416687 3.55575 1.01371 2.49304 2.07642C1.43034 3.13912 0.833313 4.58046 0.833313 6.08335C0.833313 9.90835 5.82706 14.2292 6.03956 14.4134C6.16786 14.5231 6.33115 14.5834 6.49998 14.5834C6.66881 14.5834 6.83209 14.5231 6.9604 14.4134C7.20831 14.2292 12.1666 9.90835 12.1666 6.08335C12.1666 4.58046 11.5696 3.13912 10.5069 2.07642C9.44421 1.01371 8.00287 0.416687 6.49998 0.416687V0.416687ZM6.49998 12.9188C4.99123 11.5021 2.24998 8.44919 2.24998 6.08335C2.24998 4.95618 2.69775 3.87518 3.49478 3.07815C4.29181 2.28112 5.37281 1.83335 6.49998 1.83335C7.62715 1.83335 8.70815 2.28112 9.50518 3.07815C10.3022 3.87518 10.75 4.95618 10.75 6.08335C10.75 8.44919 8.00873 11.5092 6.49998 12.9188ZM6.49998 3.25002C5.9396 3.25002 5.3918 3.41619 4.92586 3.72752C4.45992 4.03885 4.09677 4.48136 3.88232 4.99908C3.66787 5.51681 3.61176 6.0865 3.72109 6.63611C3.83041 7.18572 4.10026 7.69057 4.49651 8.08682C4.89276 8.48307 5.39761 8.75292 5.94722 8.86225C6.49684 8.97157 7.06652 8.91546 7.58425 8.70101C8.10197 8.48656 8.54448 8.12341 8.85581 7.65747C9.16714 7.19153 9.33331 6.64373 9.33331 6.08335C9.33331 5.33191 9.0348 4.61124 8.50345 4.07988C7.9721 3.54853 7.25143 3.25002 6.49998 3.25002ZM6.49998 7.50002C6.21979 7.50002 5.94589 7.41693 5.71292 7.26127C5.47995 7.1056 5.29837 6.88435 5.19115 6.62549C5.08393 6.36663 5.05587 6.08178 5.11053 5.80698C5.1652 5.53217 5.30012 5.27974 5.49824 5.08162C5.69637 4.88349 5.94879 4.74857 6.2236 4.69391C6.49841 4.63925 6.78325 4.6673 7.04211 4.77452C7.30098 4.88175 7.52223 5.06333 7.67789 5.2963C7.83356 5.52927 7.91665 5.80316 7.91665 6.08335C7.91665 6.45908 7.76739 6.81941 7.50171 7.08509C7.23604 7.35076 6.8757 7.50002 6.49998 7.50002Z" fill="black"/>
</svg>
