<svg width="33" height="33" viewBox="0 0 33 33" fill="none" xmlns="http://www.w3.org/2000/svg">
<path d="M31.1589 1.71433C30.5419 1.08536 29.7594 0.643886 28.902 0.440962C28.0446 0.238039 27.1472 0.281953 26.3137 0.567626L3.46033 8.20695C2.53863 8.50865 1.73331 9.08902 1.15554 9.86796C0.577767 10.6469 0.25604 11.586 0.23477 12.5556C0.213499 13.5251 0.493734 14.4774 1.03679 15.2809C1.57984 16.0845 2.35894 16.6996 3.26652 17.0414L11.7295 20.2716C11.9222 20.3453 12.0977 20.4579 12.245 20.6024C12.3923 20.7469 12.5082 20.9202 12.5855 21.1114L15.8157 29.5906C16.1445 30.4853 16.7412 31.2569 17.5244 31.8003C18.3076 32.3436 19.2393 32.6323 20.1926 32.6269H20.3056C21.2763 32.6093 22.2171 32.2883 22.9962 31.7091C23.7754 31.1298 24.3537 30.3213 24.6502 29.3968L32.2895 6.51112C32.5673 5.68571 32.6087 4.79904 32.4089 3.95135C32.2091 3.10367 31.7761 2.32879 31.1589 1.71433V1.71433ZM29.3016 5.49362L21.5815 28.3954C21.4919 28.6853 21.3118 28.9389 21.0677 29.119C20.8236 29.2992 20.5283 29.3965 20.2249 29.3968C19.9232 29.4017 19.6273 29.3148 19.3763 29.1474C19.1253 28.9801 18.9312 28.7404 18.8197 28.46L15.5896 19.9809C15.3554 19.3648 14.9942 18.8048 14.5296 18.3373C14.0649 17.8699 13.5071 17.5054 12.8924 17.2675L4.41323 14.0374C4.12719 13.9326 3.8813 13.7405 3.71032 13.4884C3.53933 13.2363 3.45189 12.9368 3.46033 12.6323C3.46058 12.3289 3.55791 12.0335 3.73808 11.7894C3.91826 11.5453 4.17182 11.3652 4.46168 11.2756L27.3635 3.63628C27.6264 3.52911 27.9148 3.5004 28.1937 3.55362C28.4726 3.60685 28.7301 3.73972 28.9351 3.93618C29.1401 4.13263 29.2838 4.38427 29.3489 4.66066C29.4139 4.93705 29.3975 5.22636 29.3016 5.49362V5.49362Z" fill="white"/>
</svg>
