<svg width="39" height="39" viewBox="0 0 39 39" fill="none" xmlns="http://www.w3.org/2000/svg">
<path d="M34.1589 4.71433C33.5419 4.08536 32.7594 3.64389 31.902 3.44096C31.0446 3.23804 30.1472 3.28195 29.3137 3.56763L6.46033 11.207C5.53863 11.5086 4.73331 12.089 4.15554 12.868C3.57777 13.6469 3.25604 14.586 3.23477 15.5556C3.2135 16.5251 3.49373 17.4774 4.03679 18.2809C4.57984 19.0845 5.35894 19.6996 6.26652 20.0414L14.7295 23.2716C14.9222 23.3453 15.0977 23.4579 15.245 23.6024C15.3923 23.7469 15.5082 23.9202 15.5855 24.1114L18.8157 32.5906C19.1445 33.4853 19.7412 34.2569 20.5244 34.8003C21.3076 35.3436 22.2393 35.6323 23.1926 35.6269H23.3056C24.2763 35.6093 25.2171 35.2883 25.9962 34.7091C26.7754 34.1298 27.3537 33.3213 27.6502 32.3968L35.2895 9.51112C35.5673 8.68571 35.6087 7.79904 35.4089 6.95135C35.2091 6.10367 34.7761 5.32879 34.1589 4.71433V4.71433ZM32.3016 8.49362L24.5815 31.3954C24.4919 31.6853 24.3118 31.9389 24.0677 32.119C23.8236 32.2992 23.5283 32.3965 23.2249 32.3968C22.9232 32.4017 22.6273 32.3148 22.3763 32.1474C22.1253 31.9801 21.9312 31.7404 21.8197 31.46L18.5896 22.9809C18.3554 22.3648 17.9942 21.8048 17.5296 21.3373C17.0649 20.8699 16.5071 20.5054 15.8924 20.2675L7.41323 17.0374C7.12719 16.9326 6.8813 16.7405 6.71032 16.4884C6.53933 16.2363 6.45189 15.9368 6.46033 15.6323C6.46058 15.3289 6.55791 15.0335 6.73808 14.7894C6.91826 14.5453 7.17182 14.3652 7.46168 14.2756L30.3635 6.63628C30.6264 6.52911 30.9148 6.5004 31.1937 6.55362C31.4726 6.60685 31.7301 6.73972 31.9351 6.93618C32.1401 7.13263 32.2838 7.38427 32.3489 7.66066C32.4139 7.93705 32.3975 8.22636 32.3016 8.49362V8.49362Z" fill="white"/>
</svg>
