<svg width="15" height="15" viewBox="0 0 15 15" fill="none" xmlns="http://www.w3.org/2000/svg">
<path d="M13.9246 10.9212L12.4583 9.41957C12.1429 9.11977 11.7451 8.92113 11.3159 8.84918C10.8868 8.77724 10.4459 8.83527 10.05 9.01582L9.41247 8.37832C10.1637 7.37456 10.5068 6.12347 10.3726 4.87691C10.2385 3.63036 9.63714 2.4809 8.68957 1.65992C7.742 0.838946 6.5186 0.407417 5.26565 0.452203C4.0127 0.496989 2.82324 1.01477 1.9367 1.9013C1.05017 2.78784 0.53239 3.9773 0.487603 5.23025C0.442817 6.4832 0.874347 7.7066 1.69532 8.65417C2.5163 9.60174 3.66576 10.2031 4.91232 10.3372C6.15887 10.4714 7.40996 10.1283 8.41372 9.37707L9.04414 10.0075C8.84233 10.4039 8.77 10.8536 8.83735 11.2933C8.9047 11.733 9.10834 12.1405 9.41956 12.4583L10.9212 13.96C11.3197 14.3579 11.8598 14.5815 12.4229 14.5815C12.986 14.5815 13.5261 14.3579 13.9246 13.96C14.127 13.7621 14.2878 13.5257 14.3976 13.2648C14.5074 13.0039 14.5639 12.7237 14.5639 12.4406C14.5639 12.1575 14.5074 11.8773 14.3976 11.6164C14.2878 11.3555 14.127 11.1191 13.9246 10.9212V10.9212ZM7.91789 7.91791C7.42222 8.41232 6.79114 8.74874 6.10437 8.88467C5.4176 9.0206 4.70595 8.94994 4.05932 8.68162C3.41268 8.4133 2.86008 7.95935 2.47131 7.37712C2.08254 6.79489 1.87505 6.1105 1.87505 5.41041C1.87505 4.71031 2.08254 4.02592 2.47131 3.44369C2.86008 2.86146 3.41268 2.40751 4.05932 2.13919C4.70595 1.87087 5.4176 1.80021 6.10437 1.93614C6.79114 2.07207 7.42222 2.40849 7.91789 2.90291C8.24771 3.2319 8.50939 3.62272 8.68794 4.053C8.86648 4.48328 8.95839 4.94455 8.95839 5.41041C8.95839 5.87626 8.86648 6.33753 8.68794 6.76781C8.50939 7.19809 8.24771 7.58892 7.91789 7.91791V7.91791ZM12.9258 12.9258C12.86 12.9922 12.7816 13.0449 12.6953 13.0809C12.609 13.1168 12.5164 13.1353 12.4229 13.1353C12.3294 13.1353 12.2368 13.1168 12.1505 13.0809C12.0642 13.0449 11.9858 12.9922 11.92 12.9258L10.4183 11.4242C10.3519 11.3583 10.2992 11.28 10.2633 11.1936C10.2273 11.1073 10.2088 11.0147 10.2088 10.9212C10.2088 10.8277 10.2273 10.7351 10.2633 10.6488C10.2992 10.5625 10.3519 10.4842 10.4183 10.4183C10.4842 10.3519 10.5625 10.2992 10.6488 10.2633C10.7351 10.2273 10.8277 10.2088 10.9212 10.2088C11.0147 10.2088 11.1073 10.2273 11.1936 10.2633C11.2799 10.2992 11.3583 10.3519 11.4241 10.4183L12.9258 11.92C12.9922 11.9858 13.0449 12.0642 13.0809 12.1505C13.1168 12.2368 13.1353 12.3294 13.1353 12.4229C13.1353 12.5164 13.1168 12.609 13.0809 12.6953C13.0449 12.7816 12.9922 12.86 12.9258 12.9258V12.9258Z" fill="black"/>
</svg>
