<svg width="13" height="15" viewBox="0 0 13 15" fill="none" xmlns="http://www.w3.org/2000/svg">
<path d="M10.9625 5.08456L11.6071 4.44706C11.7405 4.31368 11.8154 4.13278 11.8154 3.94415C11.8154 3.75552 11.7405 3.57461 11.6071 3.44123C11.4737 3.30785 11.2928 3.23291 11.1042 3.23291C10.9155 3.23291 10.7346 3.30785 10.6012 3.44123L9.96375 4.08581C8.97106 3.31788 7.75151 2.90122 6.49646 2.90122C5.2414 2.90122 4.02186 3.31788 3.02916 4.08581L2.38458 3.43415C2.25026 3.30076 2.06846 3.2262 1.87916 3.22687C1.68987 3.22753 1.50859 3.30337 1.37521 3.43769C1.24182 3.57201 1.16726 3.75381 1.16793 3.94311C1.16859 4.1324 1.24443 4.31368 1.37875 4.44706L2.03042 5.09165C1.25338 6.08157 0.831767 7.30402 0.833332 8.56248C0.831018 9.4659 1.04474 10.3568 1.45668 11.1608C1.86862 11.9649 2.46683 12.6588 3.20143 13.1847C3.93602 13.7105 4.7857 14.0532 5.67961 14.184C6.57352 14.3147 7.48575 14.2299 8.34021 13.9365C9.19468 13.6431 9.96661 13.1497 10.5916 12.4974C11.2167 11.8451 11.6766 11.0527 11.9333 10.1865C12.1899 9.32031 12.2356 8.40529 12.0668 7.51779C11.8979 6.63028 11.5193 5.79602 10.9625 5.08456V5.08456ZM6.5 12.8125C5.65943 12.8125 4.83773 12.5632 4.13882 12.0962C3.43992 11.6292 2.89518 10.9655 2.57351 10.1889C2.25184 9.4123 2.16767 8.55776 2.33166 7.73335C2.49565 6.90893 2.90042 6.15165 3.49479 5.55728C4.08917 4.9629 4.84645 4.55813 5.67086 4.39414C6.49528 4.23015 7.34982 4.31432 8.1264 4.63599C8.90299 4.95766 9.56675 5.5024 10.0337 6.20131C10.5007 6.90021 10.75 7.72191 10.75 8.56248C10.75 9.68965 10.3022 10.7707 9.5052 11.5677C8.70817 12.3647 7.62717 12.8125 6.5 12.8125ZM5.08333 2.18748H7.91667C8.10453 2.18748 8.28469 2.11285 8.41753 1.98001C8.55037 1.84718 8.625 1.66701 8.625 1.47915C8.625 1.29128 8.55037 1.11112 8.41753 0.978279C8.28469 0.845441 8.10453 0.770813 7.91667 0.770813H5.08333C4.89547 0.770813 4.7153 0.845441 4.58246 0.978279C4.44963 1.11112 4.375 1.29128 4.375 1.47915C4.375 1.66701 4.44963 1.84718 4.58246 1.98001C4.7153 2.11285 4.89547 2.18748 5.08333 2.18748V2.18748ZM7.20833 6.43748C7.20833 6.24962 7.1337 6.06945 7.00087 5.93661C6.86803 5.80377 6.68786 5.72915 6.5 5.72915C6.31214 5.72915 6.13197 5.80377 5.99913 5.93661C5.86629 6.06945 5.79167 6.24962 5.79167 6.43748V7.77623C5.63128 7.91968 5.51823 8.10846 5.46747 8.31757C5.41672 8.52668 5.43066 8.74628 5.50744 8.94729C5.58422 9.14831 5.72023 9.32128 5.89747 9.44331C6.0747 9.56533 6.28482 9.63067 6.5 9.63067C6.71518 9.63067 6.92529 9.56533 7.10253 9.44331C7.27977 9.32128 7.41578 9.14831 7.49256 8.94729C7.56934 8.74628 7.58328 8.52668 7.53252 8.31757C7.48177 8.10846 7.36872 7.91968 7.20833 7.77623V6.43748Z" fill="black"/>
</svg>
