<svg width="35" height="29" viewBox="0 0 35 29" fill="none" xmlns="http://www.w3.org/2000/svg">
<path d="M34.4448 2.08994C34.445 1.81763 34.373 1.55014 34.2362 1.31471C34.0993 1.07927 33.9026 0.884306 33.6659 0.749665C33.4292 0.615023 33.161 0.545515 32.8887 0.54822C32.6164 0.550925 32.3497 0.625746 32.1158 0.765064C31.2134 1.30216 30.2419 1.71347 29.2282 1.98761C27.7805 0.74538 25.9342 0.065615 24.0266 0.0725625C21.9339 0.0749716 19.9241 0.89056 18.4215 2.34711C16.9188 3.80366 16.0411 5.78715 15.9735 7.87876C11.848 7.22087 8.10892 5.06757 5.46931 1.82948C5.31026 1.63651 5.10715 1.48463 4.87709 1.38663C4.64704 1.28863 4.39679 1.24739 4.14745 1.26638C3.89826 1.2869 3.65781 1.36781 3.44691 1.50212C3.236 1.63643 3.06099 1.82009 2.937 2.03722C2.3011 3.14693 1.93589 4.39097 1.87101 5.66831C1.80614 6.94566 2.04343 8.2203 2.56362 9.38873L2.56062 9.39174C2.32682 9.53574 2.13387 9.73731 2.00023 9.97718C1.86659 10.2171 1.79672 10.4872 1.79731 10.7618C1.79447 10.9883 1.80806 11.2147 1.83796 11.4393C1.99542 13.3791 2.85512 15.1949 4.25585 16.546C4.16082 16.7271 4.10283 16.9252 4.08525 17.1289C4.06767 17.3326 4.09086 17.5378 4.15347 17.7324C4.76414 19.635 6.06282 21.2413 7.79536 22.2369C6.03515 22.9176 4.13455 23.1549 2.26101 22.928C1.91424 22.8845 1.56299 22.9601 1.26486 23.1425C0.966727 23.3248 0.739424 23.6031 0.620235 23.9316C0.501047 24.2602 0.497049 24.6195 0.608898 24.9506C0.720746 25.2817 0.941801 25.5649 1.2358 25.7539C4.45803 27.8292 8.2098 28.9326 12.0425 28.9321C16.3889 28.981 20.6296 27.5921 24.1049 24.9815C27.5802 22.3709 30.0954 18.6849 31.2591 14.497C31.8034 12.6726 32.0813 10.7792 32.0842 8.87537C32.0842 8.7745 32.0842 8.67062 32.0827 8.56674C32.8876 7.69868 33.5111 6.67867 33.9167 5.5665C34.3224 4.45434 34.5019 3.27239 34.4448 2.08994V2.08994ZM29.3471 7.04164C29.0924 7.34279 28.9636 7.73045 28.9872 8.12412C29.0023 8.37849 29.0008 8.63441 29.0008 8.87537C28.9976 10.4842 28.7618 12.084 28.3007 13.6253C27.3503 17.1887 25.2315 20.3301 22.2837 22.5463C19.336 24.7626 15.7297 25.9255 12.0425 25.8488C10.718 25.8492 9.39813 25.6935 8.11008 25.3851C9.75258 24.8557 11.2884 24.0397 12.6462 22.9747C12.8963 22.7778 13.0794 22.5083 13.1702 22.2032C13.2611 21.8981 13.2553 21.5724 13.1537 21.2708C13.0521 20.9691 12.8597 20.7063 12.6027 20.5183C12.3458 20.3304 12.037 20.2266 11.7188 20.2211C10.4374 20.2012 9.21377 19.6846 8.30573 18.7803C8.53608 18.7366 8.76493 18.6824 8.99226 18.6177C9.32528 18.5229 9.61671 18.3188 9.81961 18.0382C10.0225 17.7577 10.1251 17.417 10.1109 17.071C10.0966 16.7251 9.96633 16.394 9.74103 16.1311C9.51572 15.8682 9.20849 15.6887 8.86881 15.6217C8.12501 15.4748 7.42511 15.1583 6.8235 14.697C6.22189 14.2356 5.73479 13.6417 5.40006 12.9614C5.67868 12.9994 5.95908 13.023 6.24014 13.0322C6.57404 13.0372 6.90089 12.9359 7.17343 12.7429C7.44597 12.55 7.65007 12.2753 7.75622 11.9587C7.85793 11.6392 7.8527 11.2953 7.74131 10.979C7.62992 10.6628 7.41844 10.3915 7.13895 10.2063C6.46084 9.75451 5.90537 9.14162 5.52229 8.42249C5.1392 7.70335 4.94047 6.90043 4.94388 6.08563C4.94388 5.98327 4.94688 5.88088 4.95291 5.78001C8.40819 9.00249 12.8899 10.9021 17.6085 11.1442C17.8466 11.1536 18.0838 11.1088 18.3021 11.013C18.5204 10.9173 18.7141 10.7732 18.8686 10.5917C19.0215 10.4084 19.1298 10.1921 19.1849 9.95985C19.24 9.7276 19.2404 9.48573 19.1862 9.25328C19.098 8.88538 19.053 8.50846 19.0522 8.13014C19.0536 6.8113 19.5781 5.54688 20.5107 4.61432C21.4433 3.68176 22.7077 3.15724 24.0265 3.15585C24.7051 3.15403 25.3766 3.2929 25.9988 3.56369C26.6209 3.83448 27.1802 4.23131 27.6413 4.72914C27.8191 4.92043 28.0429 5.06305 28.2914 5.14344C28.5399 5.22382 28.8048 5.23929 29.061 5.18838C29.6943 5.06514 30.3185 4.89915 30.9294 4.69157C30.5127 5.54406 29.9802 6.3349 29.3471 7.04164V7.04164Z" fill="white"/>
</svg>
